<svg width="175" height="175" viewBox="0 0 175 175" fill="none" xmlns="http://www.w3.org/2000/svg">
<circle cx="87.5" cy="87.5" r="87" stroke="#A6B0D0"/>
<path d="M87.5 79.9167C89.2428 79.9167 90.9684 79.5734 92.5785 78.9065C94.1886 78.2396 95.6516 77.262 96.8839 76.0297C98.1162 74.7974 99.0937 73.3345 99.7607 71.7244C100.428 70.1143 100.771 68.3886 100.771 66.6458C100.771 64.9031 100.428 63.1774 99.7607 61.5673C99.0937 59.9572 98.1162 58.4942 96.8839 57.2619C95.6516 56.0296 94.1886 55.0521 92.5785 54.3852C90.9684 53.7183 89.2428 53.375 87.5 53.375C83.9804 53.375 80.6049 54.7732 78.1161 57.2619C75.6273 59.7507 74.2292 63.1262 74.2292 66.6458C74.2292 70.1655 75.6273 73.541 78.1161 76.0297C80.6049 78.5185 83.9804 79.9167 87.5 79.9167ZM53.375 119.35V121.625H121.625V119.35C121.625 110.857 121.625 106.61 119.972 103.364C118.518 100.511 116.198 98.1906 113.344 96.7365C110.098 95.0833 105.852 95.0833 97.3583 95.0833H77.6417C69.1483 95.0833 64.9017 95.0833 61.656 96.7365C58.8023 98.1906 56.4822 100.511 55.0282 103.364C53.375 106.61 53.375 110.857 53.375 119.35Z" fill="#A6B0D0" stroke="#A6B0D0" stroke-width="5" stroke-linecap="round" stroke-linejoin="round"/>
</svg>
