<svg width="175" height="175" viewBox="0 0 175 175" fill="none" xmlns="http://www.w3.org/2000/svg">
<circle cx="87.5" cy="87.5" r="87" stroke="#A6B0D0"/>
<path d="M102.25 105C107.724 105 112.167 109.443 112.167 114.917L112.161 120.368C112.824 132.778 103.599 139.051 87.0463 139.051C70.5563 139.051 61.1667 132.874 61.1667 120.583V114.917C61.1667 109.443 65.6093 105 71.0833 105H102.25ZM39.9167 76.6667H64.714C63.7253 80.5143 63.7633 84.554 64.8243 88.3823C65.8853 92.2106 67.9321 95.6936 70.7603 98.4833L71.6783 99.339L71.0833 99.3333C67.6824 99.3321 64.3744 100.444 61.6641 102.498C58.9538 104.552 56.99 107.437 56.0723 110.712L55.8797 110.718C39.3897 110.718 30 104.541 30 92.25V86.5833C30 81.1093 34.4427 76.6667 39.9167 76.6667ZM133.417 76.6667C138.891 76.6667 143.333 81.1093 143.333 86.5833L143.328 92.0347C143.991 104.445 134.765 110.718 118.213 110.718L117.255 110.706C116.384 107.62 114.584 104.876 112.099 102.848C109.614 100.821 106.565 99.6073 103.366 99.373L102.25 99.3333L101.655 99.339C104.801 96.5761 107.117 92.994 108.347 88.9919C109.577 84.9898 109.671 80.7249 108.619 76.6723L133.417 76.6667ZM86.6667 65.3333C88.8991 65.3333 91.1098 65.773 93.1723 66.6274C95.2348 67.4817 97.1089 68.7339 98.6875 70.3125C100.266 71.8911 101.518 73.7652 102.373 75.8277C103.227 77.8902 103.667 80.1009 103.667 82.3333C103.667 84.5658 103.227 86.7764 102.373 88.839C101.518 90.9015 100.266 92.7756 98.6875 94.3541C97.1089 95.9327 95.2348 97.185 93.1723 98.0393C91.1098 98.8936 88.8991 99.3333 86.6667 99.3333C82.158 99.3333 77.834 97.5423 74.6459 94.3541C71.4577 91.166 69.6667 86.842 69.6667 82.3333C69.6667 77.8247 71.4577 73.5006 74.6459 70.3125C77.834 67.1244 82.158 65.3333 86.6667 65.3333ZM55.5 37C60.0087 37 64.3327 38.7911 67.5208 41.9792C70.7089 45.1673 72.5 49.4913 72.5 54C72.5 58.5087 70.7089 62.8327 67.5208 66.0208C64.3327 69.2089 60.0087 71 55.5 71C50.9913 71 46.6673 69.2089 43.4792 66.0208C40.2911 62.8327 38.5 58.5087 38.5 54C38.5 49.4913 40.2911 45.1673 43.4792 41.9792C46.6673 38.7911 50.9913 37 55.5 37ZM117.833 37C122.342 37 126.666 38.7911 129.854 41.9792C133.042 45.1673 134.833 49.4913 134.833 54C134.833 58.5087 133.042 62.8327 129.854 66.0208C126.666 69.2089 122.342 71 117.833 71C113.325 71 109.001 69.2089 105.813 66.0208C102.624 62.8327 100.833 58.5087 100.833 54C100.833 49.4913 102.624 45.1673 105.813 41.9792C109.001 38.7911 113.325 37 117.833 37Z" fill="#A6B0D0"/>
</svg>
