<svg width="27" height="21" viewBox="0 0 27 21" fill="none" xmlns="http://www.w3.org/2000/svg">
<path d="M8.65695 14.6331L22.9439 0.882145C23.3879 0.454855 23.9529 0.241211 24.639 0.241211C25.3251 0.241211 25.8901 0.454855 26.3341 0.882145C26.778 1.30943 27 1.85326 27 2.51361C27 3.17397 26.778 3.7178 26.3341 4.14509L10.352 19.5275C9.86771 19.9937 9.30269 20.2267 8.65695 20.2267C8.01121 20.2267 7.44619 19.9937 6.96188 19.5275L0.665918 13.4678C0.221972 13.0405 0 12.4967 0 11.8363C0 11.1759 0.221972 10.6321 0.665918 10.2048C1.10986 9.77754 1.67489 9.5639 2.36099 9.5639C3.04708 9.5639 3.61211 9.77754 4.05605 10.2048L8.65695 14.6331Z" fill="#A6B0D0"/>
</svg>
